# Blender v2.79 (sub 0) OBJ File: 'sweets.blend'
# www.blender.org
mtllib candy.mtl
o Circle.001
v 0.010086 1.715559 -0.010487
v 0.013778 1.715559 -0.001403
v 0.013778 1.130196 -0.001403
v 0.010086 1.130196 -0.010487
v -0.008032 1.715559 -0.010608
v 0.001052 1.715559 -0.014300
v 0.001052 1.130196 -0.014300
v -0.008032 1.130196 -0.010608
v -0.008153 1.715559 0.007510
v -0.011845 1.715559 -0.001574
v -0.011845 1.130196 -0.001574
v -0.008153 1.130196 0.007510
v 0.009965 1.715559 0.007631
v 0.009965 1.130196 0.007631
v 0.000881 1.715559 0.011323
v 0.000881 1.130196 0.011323
v 0.000966 1.130196 -0.001488
v 0.041655 1.698997 0.016687
v 0.023811 1.675035 0.013482
v 0.024009 1.675035 -0.016153
v 0.041894 1.698997 -0.019120
v 0.041978 1.530837 -0.019119
v 0.042735 1.567353 -0.016028
v 0.042538 1.567353 0.013607
v 0.041739 1.530837 0.016688
v -0.011908 1.734696 -0.019479
v -0.003634 1.699309 -0.016338
v -0.001924 1.697565 -0.016326
v -0.035171 1.701666 -0.019634
v -0.003831 1.699309 0.013298
v -0.002122 1.697565 0.013309
v -0.012147 1.734696 0.016328
v -0.020422 1.770082 0.013187
v -0.068656 1.705767 0.012865
v -0.035410 1.701666 0.016173
v -0.020224 1.770082 -0.016448
v -0.068459 1.705767 -0.016770
v -0.014359 1.664273 -0.019495
v 0.009293 1.684955 -0.016251
v 0.025013 1.689627 -0.016146
v 0.025033 1.653102 -0.019232
v 0.009096 1.684955 0.013384
v 0.024815 1.689627 0.013489
v -0.014598 1.664273 0.016312
v -0.038251 1.643591 0.013068
v 0.024815 1.616577 0.013489
v 0.024794 1.653102 0.016575
v -0.038053 1.643591 -0.016567
v 0.025013 1.616577 -0.016146
v 0.062271 1.669930 -0.018984
v 0.038577 1.695757 -0.016056
v 0.044195 1.710555 -0.016018
v 0.077695 1.710555 -0.018881
v 0.038379 1.695757 0.013580
v 0.043998 1.710555 0.013617
v 0.062032 1.669930 0.016823
v 0.085726 1.644102 0.013895
v 0.110956 1.710555 0.014064
v 0.077456 1.710555 0.016926
v 0.085923 1.644102 -0.015740
v 0.111153 1.710555 -0.015572
v 0.062271 1.751181 -0.018984
v 0.035050 1.729886 -0.016079
v 0.015586 1.751257 -0.016209
v 0.025687 1.786087 -0.019228
v 0.034852 1.729886 0.013556
v 0.015388 1.751257 0.013426
v 0.062032 1.751181 0.016823
v 0.089252 1.772476 0.013919
v 0.035549 1.820917 0.013561
v 0.025448 1.786087 0.016579
v 0.089450 1.772476 -0.015716
v 0.035747 1.820917 -0.016075
v -0.024538 1.759081 -0.016477
v -0.024736 1.759081 0.013158
v -0.059515 1.706720 0.012926
v -0.059318 1.706720 -0.016709
v -0.040156 1.791004 0.016142
v -0.055535 1.822927 0.012953
v -0.125363 1.719972 0.012487
v -0.092460 1.713346 0.015793
v -0.055338 1.822927 -0.016683
v -0.125165 1.719972 -0.017149
v -0.082188 1.660222 -0.019948
v -0.055393 1.671259 -0.016683
v -0.031856 1.638249 -0.016526
v -0.052543 1.609549 -0.019750
v -0.055591 1.671259 0.012952
v -0.032054 1.638249 0.013109
v -0.082427 1.660222 0.015859
v -0.109222 1.649185 0.012595
v -0.073469 1.580849 0.012833
v -0.052782 1.609549 0.016057
v -0.109024 1.649185 -0.017041
v -0.073271 1.580849 -0.016802
v 0.054545 1.590930 -0.019035
v 0.047122 1.626551 -0.015999
v 0.093788 1.661445 -0.015687
v 0.121954 1.641665 -0.018586
v 0.046925 1.626551 0.013637
v 0.093591 1.661445 0.013948
v 0.054306 1.590930 0.016772
v 0.061728 1.555309 0.013735
v 0.149881 1.621886 0.014324
v 0.121715 1.641665 0.017222
v 0.061926 1.555309 -0.015900
v 0.150079 1.621886 -0.015312
v 0.136887 1.732430 -0.018486
v 0.103820 1.726579 -0.015620
v 0.070610 1.792664 -0.015842
v 0.093369 1.819471 -0.018776
v 0.103622 1.726579 0.014015
v 0.070412 1.792664 0.013793
v 0.136648 1.732430 0.017321
v 0.169715 1.738281 0.014456
v 0.115890 1.846279 0.014097
v 0.093130 1.819471 0.017031
v 0.169913 1.738281 -0.015179
v 0.116088 1.846279 -0.015539
v 0.018280 1.856242 -0.019277
v 0.013766 1.820048 -0.016221
v -0.053799 1.809681 -0.016672
v -0.070462 1.841348 -0.019870
v 0.013568 1.820048 0.013414
v -0.053997 1.809681 0.012963
v 0.018041 1.856242 0.016530
v 0.022555 1.892437 0.013474
v -0.087364 1.873015 0.012740
v -0.070701 1.841348 0.015938
v 0.022753 1.892437 -0.016161
v -0.087166 1.873015 -0.016895
v -0.140858 1.746394 -0.020339
v -0.109275 1.734342 -0.017042
v -0.109592 1.655167 -0.017045
v -0.140121 1.640224 -0.020334
v -0.109472 1.734342 0.012593
v -0.109790 1.655167 0.012591
v -0.141097 1.746394 0.015468
v -0.172680 1.758446 0.012171
v -0.170888 1.625282 0.012183
v -0.140360 1.640224 0.015473
v -0.172483 1.758446 -0.017464
v -0.170691 1.625282 -0.017452
v -0.062711 1.563814 -0.019818
v -0.049080 1.597165 -0.016641
v 0.040152 1.578588 -0.016045
v 0.043130 1.542206 -0.019112
v -0.049278 1.597165 0.012995
v 0.039954 1.578588 0.013590
v -0.062949 1.563814 0.015989
v -0.076580 1.530464 0.012812
v 0.045868 1.505823 0.013629
v 0.042891 1.542206 0.016696
v -0.076382 1.530464 -0.016823
v 0.046066 1.505823 -0.016006
v 0.139340 1.572721 -0.018470
v 0.117934 1.600824 -0.015526
v 0.160507 1.693900 -0.015242
v 0.193839 1.690251 -0.018106
v 0.117736 1.600824 0.014109
v 0.160309 1.693900 0.014393
v 0.139101 1.572721 0.017338
v 0.160506 1.544619 0.014394
v 0.226932 1.686602 0.014838
v 0.193600 1.690251 0.017701
v 0.160704 1.544619 -0.015241
v 0.227130 1.686602 -0.014798
v 0.065630 1.899195 -0.018961
v 0.054369 1.864790 -0.015950
v -0.031696 1.869689 -0.016525
v -0.038828 1.905371 -0.019659
v 0.054171 1.864790 0.013685
v -0.031894 1.869689 0.013111
v 0.065391 1.899195 0.016846
v 0.076652 1.933599 0.013835
v -0.046199 1.941053 0.013015
v -0.039067 1.905371 0.016149
v 0.076850 1.933599 -0.015800
v -0.046001 1.941053 -0.016620
v -0.136576 1.849066 -0.020311
v -0.112965 1.823193 -0.017067
v -0.159346 1.747659 -0.017377
v -0.191728 1.756850 -0.020679
v -0.113163 1.823193 0.012568
v -0.159544 1.747659 0.012259
v -0.136815 1.849066 0.015497
v -0.160426 1.874938 0.012253
v -0.224348 1.766041 0.011826
v -0.191967 1.756850 0.015128
v -0.160228 1.874938 -0.017383
v -0.224150 1.766041 -0.017809
v -0.146997 1.580037 -0.020380
v -0.162428 1.556055 -0.017397
v -0.219084 1.631724 -0.017775
v -0.188516 1.646672 -0.020657
v -0.125752 1.604479 0.012484
v -0.125554 1.604479 -0.017151
v -0.157990 1.661619 -0.017368
v -0.158188 1.661619 0.012268
v -0.147236 1.580037 0.015427
v -0.188755 1.646672 0.015150
v -0.162626 1.556055 0.012238
v -0.219282 1.631724 0.011860
v -0.039917 1.791004 -0.019666
v -0.092221 1.713346 -0.020015
v 0.041179 1.510619 -0.016038
v 0.040981 1.510619 0.013597
v 0.059541 1.722960 0.013721
v 0.059738 1.722960 -0.015915
v 0.128183 1.818566 -0.015458
v 0.155513 1.839694 -0.018362
v 0.183427 1.771496 -0.018175
v 0.153096 1.762757 -0.015292
v 0.182603 1.860823 0.014542
v 0.155274 1.839694 0.017446
v 0.183188 1.771496 0.017632
v 0.213519 1.780236 0.014748
v 0.182801 1.860823 -0.015093
v 0.213716 1.780236 -0.014887
v 0.127985 1.818566 0.014177
v 0.152898 1.762757 0.014344
v -0.085121 1.501038 -0.016881
v -0.084828 1.534055 -0.019965
v -0.018935 1.520827 -0.019526
v -0.019481 1.494209 -0.016443
v -0.072665 1.567990 0.012838
v -0.085067 1.534055 0.015842
v -0.019174 1.520827 0.016282
v -0.012574 1.556052 0.013239
v -0.085319 1.501038 0.012754
v -0.019679 1.494209 0.013192
v -0.072468 1.567990 -0.016797
v -0.012376 1.556052 -0.016396
vn 0.9264 0.0000 -0.3765
vn -0.3765 -0.0000 -0.9264
vn -0.9264 -0.0000 0.3765
vn 0.9213 0.0000 0.3888
vn 0.3888 0.0000 -0.9213
vn -0.9213 -0.0000 -0.3888
vn -0.3888 -0.0000 0.9213
vn 0.3765 0.0000 0.9264
vn 0.0000 -1.0000 0.0000
vn 0.8017 -0.5977 0.0053
vn 0.9998 -0.0213 0.0067
vn 0.0995 -0.0576 -0.9934
vn 0.7141 0.7000 0.0048
vn -0.0936 0.0639 0.9936
vn -0.8000 0.6000 -0.0053
vn 0.0187 0.1023 -0.9946
vn -0.2849 0.9586 -0.0019
vn -0.0413 -0.0930 0.9948
vn -0.3937 -0.9192 -0.0026
vn -0.0851 0.0348 -0.9958
vn -0.9349 0.3550 -0.0062
vn 0.0851 -0.0348 0.9958
vn 0.9349 -0.3550 0.0062
vn -0.0593 -0.0657 -0.9961
vn -0.7393 -0.6733 -0.0049
vn 0.0560 0.0679 0.9961
vn 0.6698 0.7426 0.0045
vn 0.8330 -0.5533 0.0056
vn -0.0892 0.0558 0.9944
vn -0.8276 0.5613 -0.0055
vn 0.0910 0.0536 -0.9944
vn 0.8142 0.5806 0.0054
vn -0.0952 -0.0487 0.9943
vn -0.8860 -0.4636 -0.0059
vn -0.0495 0.0749 -0.9960
vn -0.5988 0.8009 -0.0040
vn 0.0497 -0.0748 0.9960
vn 0.6027 -0.7980 0.0040
vn -0.0785 -0.0427 -0.9960
vn -0.8935 -0.4490 -0.0060
vn 0.0786 0.0425 0.9960
vn 0.8950 0.4461 0.0060
vn 0.0209 -0.0880 -0.9959
vn 0.1517 -0.9884 0.0010
vn -0.0218 0.0879 0.9959
vn -0.1740 0.9847 -0.0012
vn 0.1054 0.0002 -0.9944
vn 1.0000 -0.0040 0.0067
vn -0.1054 -0.0010 0.9944
vn -0.9999 -0.0135 -0.0067
vn 0.0243 0.0855 -0.9960
vn 0.2038 0.9790 0.0014
vn -0.0240 -0.0855 0.9960
vn -0.1973 -0.9803 -0.0013
vn -0.0820 0.0408 -0.9958
vn -0.9094 0.4160 -0.0061
vn 0.0817 -0.0412 0.9958
vn 0.9058 -0.4238 0.0060
vn 0.0016 -0.0874 -0.9962
vn -0.0568 -0.9984 -0.0004
vn -0.0014 0.0874 0.9962
vn 0.0606 0.9982 0.0004
vn 0.0862 -0.0481 -0.9951
vn 0.8521 -0.5233 0.0057
vn -0.0867 0.0474 0.9951
vn -0.8624 0.5062 -0.0058
vn -0.0777 -0.0582 -0.9953
vn 0.8696 0.4937 0.0058
vn 0.0747 0.0486 0.9960
vn -0.8005 -0.5994 -0.0053
vn 0.0895 -0.0555 -0.9944
vn -0.0759 0.0558 -0.9956
vn -0.0910 -0.0582 0.9942
vn 0.0880 0.0486 -0.9949
vn 0.0729 -0.0481 0.9962
vn -0.0734 0.0474 -0.9962
vn -0.0117 -0.0874 0.9961
vn 0.0119 0.0874 -0.9961
vn -0.0952 0.0408 0.9946
vn 0.0950 -0.0412 -0.9946
vn 0.0110 0.0855 0.9963
vn -0.0107 -0.0855 -0.9963
vn 0.0922 0.0002 0.9957
vn -0.0921 -0.0010 -0.9957
vn 0.0076 -0.0880 0.9961
vn -0.0085 0.0879 -0.9961
vn -0.0918 -0.0427 0.9949
vn 0.0919 0.0425 -0.9949
vn -0.0628 0.0749 0.9952
vn 0.0630 -0.0748 -0.9952
vn 0.0777 0.0536 0.9955
vn -0.0819 -0.0487 -0.9955
vn 0.0762 -0.0555 0.9955
vn -0.0726 -0.0657 0.9952
vn 0.0693 0.0679 -0.9953
vn -0.0984 0.0348 0.9945
vn 0.0984 -0.0348 -0.9945
vn 0.0054 0.1023 0.9947
vn -0.0280 -0.0930 -0.9953
vn 0.0863 -0.0576 0.9946
vn -0.0803 0.0639 -0.9947
vn 0.9992 -0.0385 0.0067
vn -0.0807 -0.0372 -0.9960
vn 0.0818 0.0350 0.9960
vn 0.9336 0.3582 0.0062
vn -0.0940 -0.0372 0.9949
vn -0.9131 -0.4076 -0.0061
vn 0.0951 0.0350 -0.9948
vn -0.0090 -0.1027 -0.9947
vn 0.0102 0.0843 0.9964
vn -0.1035 -0.9946 -0.0007
vn -0.0223 -0.1027 0.9945
vn 0.1948 0.9808 0.0013
vn 0.0235 0.0843 -0.9962
vn -0.0614 -0.0923 -0.9938
vn -0.6598 -0.7514 -0.0044
vn 0.0516 0.0940 0.9942
vn 0.5077 0.8615 0.0034
vn 0.0975 0.0582 -0.9935
vn 0.7472 0.6646 0.0050
vn -0.1004 -0.0482 0.9938
vn -0.8983 -0.4393 -0.0060
vn -0.0314 0.0841 -0.9960
vn -0.4118 0.9113 -0.0027
vn 0.0314 -0.0841 0.9960
vn 0.4118 -0.9113 0.0027
vn -0.0819 -0.0363 -0.9960
vn -0.9039 -0.4277 -0.0060
vn 0.0832 0.0325 0.9960
vn 0.9437 0.3308 0.0063
vn -0.0046 -0.0929 -0.9957
vn -0.1914 -0.9815 -0.0013
vn -0.0026 0.0924 0.9957
vn 0.0221 0.9998 0.0001
vn 0.0217 0.0924 -0.9955
vn 0.1465 0.9892 0.0010
vn -0.0234 -0.0921 0.9955
vn -0.1856 -0.9826 -0.0012
vn -0.0902 0.0155 -0.9958
vn -0.9883 0.1522 -0.0066
vn 0.0900 -0.0162 0.9958
vn 0.9858 -0.1680 0.0066
vn -0.0326 -0.0806 -0.9962
vn -0.4340 -0.9009 -0.0029
vn 0.0330 0.0804 0.9962
vn 0.4433 0.8964 0.0030
vn 0.0829 -0.0563 -0.9950
vn 0.8052 -0.5930 0.0054
vn -0.0827 0.0565 0.9950
vn -0.8020 0.5973 -0.0054
vn 0.0722 0.0673 -0.9951
vn 0.6920 0.7219 0.0046
vn -0.0730 -0.0665 0.9951
vn -0.7090 -0.7052 -0.0047
vn -0.0193 0.0855 -0.9961
vn -0.2749 0.9615 -0.0018
vn 0.0212 -0.0848 0.9962
vn 0.3205 -0.9472 0.0021
vn 0.1022 0.0130 -0.9947
vn -0.9942 -0.1070 -0.0066
vn -0.1023 -0.0114 0.9947
vn 0.9899 0.1418 0.0066
vn -0.0427 -0.0764 -0.9962
vn -0.5307 -0.8475 -0.0035
vn 0.0442 0.0754 0.9962
vn 0.5662 0.8243 0.0038
vn 0.0512 -0.0776 -0.9957
vn 0.4966 -0.8680 0.0033
vn -0.0514 0.0775 0.9957
vn -0.5009 0.8655 -0.0033
vn 0.1040 0.0023 -0.9946
vn 0.9999 0.0158 0.0067
vn -0.1039 -0.0033 0.9946
vn -0.9993 -0.0377 -0.0067
vn -0.0094 0.0873 -0.9961
vn -0.2009 0.9796 -0.0013
vn 0.0219 -0.1314 0.9911
vn 0.2611 -0.9653 0.0017
vn -0.0227 0.0873 0.9959
vn 0.0352 -0.1314 -0.9907
vn 0.0907 0.0023 0.9959
vn -0.0906 -0.0033 -0.9959
vn 0.0379 -0.0776 0.9963
vn -0.0381 0.0775 -0.9963
vn -0.0560 -0.0764 0.9955
vn 0.0575 0.0754 -0.9955
vn 0.0889 0.0130 0.9960
vn -0.0890 -0.0114 -0.9960
vn -0.0326 0.0855 0.9958
vn 0.0345 -0.0848 -0.9958
vn 0.0589 0.0673 0.9960
vn -0.0597 -0.0665 -0.9960
vn 0.0696 -0.0563 0.9960
vn -0.0694 0.0565 -0.9960
vn -0.0459 -0.0806 0.9957
vn 0.0463 0.0804 -0.9957
vn -0.1035 0.0155 0.9945
vn 0.1033 -0.0162 -0.9945
vn 0.0084 0.0924 0.9957
vn -0.0101 -0.0921 -0.9957
vn -0.0178 -0.0929 0.9955
vn 0.0107 0.0924 -0.9957
vn -0.0952 -0.0363 0.9948
vn 0.0965 0.0325 -0.9948
vn -0.0447 0.0841 0.9955
vn 0.0447 -0.0841 -0.9955
vn 0.0842 0.0582 0.9948
vn -0.0871 -0.0482 -0.9950
vn -0.0746 -0.0923 0.9929
vn 0.0648 0.0940 -0.9935
vn 0.0599 0.0744 -0.9954
vn -0.0716 -0.0897 0.9934
vn -0.5798 -0.8147 -0.0039
vn 0.0466 0.0744 0.9961
vn 0.5664 0.8241 0.0038
vn -0.0583 -0.0897 -0.9943
vn -0.0945 -0.0214 -0.9953
vn 0.0949 0.0160 0.9954
vn -0.9750 -0.2223 -0.0065
vn -0.1078 -0.0214 0.9939
vn 0.9939 0.1100 0.0066
vn 0.1082 0.0160 -0.9940
usemtl FFFFFF
s 1
f 1//1 2//1 3//1 4//1
f 5//2 6//2 7//2 8//2
f 9//3 10//3 11//3 12//3
f 2//4 13//4 14//4 3//4
f 6//5 1//5 4//5 7//5
f 10//6 5//6 8//6 11//6
f 15//7 9//7 12//7 16//7
f 13//8 15//8 16//8 14//8
f 3//9 14//9 17//9
f 7//9 4//9 17//9
f 11//9 8//9 17//9
f 16//9 12//9 17//9
f 14//9 16//9 17//9
f 4//9 3//9 17//9
f 8//9 7//9 17//9
f 12//9 11//9 17//9
usemtl F44336
f 18//10 19//10 20//10 21//10
f 22//11 23//11 24//11 25//11
f 26//12 27//12 28//12 29//12
f 27//13 30//13 31//13 28//13
f 32//14 33//14 34//14 35//14
f 33//15 36//15 37//15 34//15
f 38//16 39//16 40//16 41//16
f 39//17 42//17 43//17 40//17
f 44//18 45//18 46//18 47//18
f 45//19 48//19 49//19 46//19
f 50//20 51//20 52//20 53//20
f 51//21 54//21 55//21 52//21
f 56//22 57//22 58//22 59//22
f 57//23 60//23 61//23 58//23
f 62//24 63//24 64//24 65//24
f 63//25 66//25 67//25 64//25
f 68//26 69//26 70//26 71//26
f 69//27 72//27 73//27 70//27
f 74//28 75//28 76//28 77//28
f 78//29 79//29 80//29 81//29
f 79//30 82//30 83//30 80//30
f 84//31 85//31 86//31 87//31
f 85//32 88//32 89//32 86//32
f 90//33 91//33 92//33 93//33
f 91//34 94//34 95//34 92//34
f 96//35 97//35 98//35 99//35
f 97//36 100//36 101//36 98//36
f 102//37 103//37 104//37 105//37
f 103//38 106//38 107//38 104//38
f 108//39 109//39 110//39 111//39
f 109//40 112//40 113//40 110//40
f 114//41 115//41 116//41 117//41
f 115//42 118//42 119//42 116//42
f 120//43 121//43 122//43 123//43
f 121//44 124//44 125//44 122//44
f 126//45 127//45 128//45 129//45
f 127//46 130//46 131//46 128//46
f 132//47 133//47 134//47 135//47
f 133//48 136//48 137//48 134//48
f 138//49 139//49 140//49 141//49
f 139//50 142//50 143//50 140//50
f 144//51 145//51 146//51 147//51
f 145//52 148//52 149//52 146//52
f 150//53 151//53 152//53 153//53
f 151//54 154//54 155//54 152//54
f 156//55 157//55 158//55 159//55
f 157//56 160//56 161//56 158//56
f 162//57 163//57 164//57 165//57
f 163//58 166//58 167//58 164//58
f 168//59 169//59 170//59 171//59
f 169//60 172//60 173//60 170//60
f 174//61 175//61 176//61 177//61
f 175//62 178//62 179//62 176//62
f 180//63 181//63 182//63 183//63
f 181//64 184//64 185//64 182//64
f 186//65 187//65 188//65 189//65
f 187//66 190//66 191//66 188//66
f 192//67 193//67 194//67 195//67
f 196//68 197//68 198//68 199//68
f 200//69 196//69 199//69 201//69
f 193//70 202//70 203//70 194//70
f 204//71 74//71 77//71 205//71
f 82//72 204//72 205//72 83//72
f 202//73 200//73 201//73 203//73
f 197//74 192//74 195//74 198//74
f 184//75 186//75 189//75 185//75
f 190//76 180//76 183//76 191//76
f 172//77 174//77 177//77 173//77
f 178//78 168//78 171//78 179//78
f 160//79 162//79 165//79 161//79
f 166//80 156//80 159//80 167//80
f 148//81 150//81 153//81 149//81
f 154//82 144//82 147//82 155//82
f 136//83 138//83 141//83 137//83
f 142//84 132//84 135//84 143//84
f 124//85 126//85 129//85 125//85
f 130//86 120//86 123//86 131//86
f 112//87 114//87 117//87 113//87
f 118//88 108//88 111//88 119//88
f 100//89 102//89 105//89 101//89
f 106//90 96//90 99//90 107//90
f 88//91 90//91 93//91 89//91
f 94//92 84//92 87//92 95//92
f 75//93 78//93 81//93 76//93
f 66//94 68//94 71//94 67//94
f 72//95 62//95 65//95 73//95
f 54//96 56//96 59//96 55//96
f 60//97 50//97 53//97 61//97
f 42//98 44//98 47//98 43//98
f 48//99 38//99 41//99 49//99
f 30//100 32//100 35//100 31//100
f 36//101 26//101 29//101 37//101
f 206//102 22//102 25//102 207//102
f 208//10 18//10 21//10 209//10
f 210//103 211//103 212//103 213//103
f 214//104 215//104 216//104 217//104
f 218//105 214//105 217//105 219//105
f 215//106 220//106 221//106 216//106
f 220//107 210//107 213//107 221//107
f 211//108 218//108 219//108 212//108
f 222//109 223//109 224//109 225//109
f 226//110 227//110 228//110 229//110
f 230//111 222//111 225//111 231//111
f 227//112 230//112 231//112 228//112
f 232//113 226//113 229//113 233//113
f 223//114 232//114 233//114 224//114
usemtl FF9800
f 21//115 20//115 27//115 26//115
f 20//116 19//116 30//116 27//116
f 18//117 208//117 33//117 32//117
f 208//118 209//118 36//118 33//118
f 29//119 28//119 39//119 38//119
f 28//120 31//120 42//120 39//120
f 35//121 34//121 45//121 44//121
f 34//122 37//122 48//122 45//122
f 41//123 40//123 51//123 50//123
f 40//124 43//124 54//124 51//124
f 47//125 46//125 57//125 56//125
f 46//126 49//126 60//126 57//126
f 53//127 52//127 63//127 62//127
f 52//128 55//128 66//128 63//128
f 59//129 58//129 69//129 68//129
f 58//130 61//130 72//130 69//130
f 65//131 64//131 74//131 204//131
f 64//132 67//132 75//132 74//132
f 71//133 70//133 79//133 78//133
f 70//134 73//134 82//134 79//134
f 87//135 86//135 97//135 96//135
f 86//136 89//136 100//136 97//136
f 93//137 92//137 103//137 102//137
f 92//138 95//138 106//138 103//138
f 99//139 98//139 109//139 108//139
f 98//140 101//140 112//140 109//140
f 105//141 104//141 115//141 114//141
f 104//142 107//142 118//142 115//142
f 111//143 110//143 121//143 120//143
f 110//144 113//144 124//144 121//144
f 117//145 116//145 127//145 126//145
f 116//146 119//146 130//146 127//146
f 123//147 122//147 133//147 132//147
f 122//148 125//148 136//148 133//148
f 129//149 128//149 139//149 138//149
f 128//150 131//150 142//150 139//150
f 135//151 134//151 145//151 144//151
f 134//152 137//152 148//152 145//152
f 141//153 140//153 151//153 150//153
f 140//154 143//154 154//154 151//154
f 147//155 146//155 157//155 156//155
f 146//156 149//156 160//156 157//156
f 153//157 152//157 163//157 162//157
f 152//158 155//158 166//158 163//158
f 212//159 219//159 167//159 159//159
f 221//160 213//160 158//160 161//160
f 216//161 221//161 161//161 165//161
f 219//162 217//162 164//162 167//162
f 211//163 210//163 169//163 168//163
f 210//164 220//164 172//164 169//164
f 215//165 214//165 175//165 174//165
f 214//166 218//166 178//166 175//166
f 171//167 170//167 181//167 180//167
f 170//168 173//168 184//168 181//168
f 177//169 176//169 187//169 186//169
f 176//170 179//170 190//170 187//170
f 183//171 182//171 198//171 195//171
f 182//172 185//172 199//172 198//172
f 189//173 188//173 203//173 201//173
f 188//174 191//174 194//174 203//174
f 224//175 233//175 23//175 22//175
f 233//176 229//176 24//176 23//176
f 228//177 231//177 207//177 25//177
f 231//178 225//178 206//178 207//178
f 229//179 228//179 25//179 24//179
f 225//180 224//180 22//180 206//180
f 185//181 189//181 201//181 199//181
f 191//182 183//182 195//182 194//182
f 173//183 177//183 186//183 184//183
f 179//184 171//184 180//184 190//184
f 220//185 215//185 174//185 172//185
f 218//186 211//186 168//186 178//186
f 217//187 216//187 165//187 164//187
f 213//188 212//188 159//188 158//188
f 149//189 153//189 162//189 160//189
f 155//190 147//190 156//190 166//190
f 137//191 141//191 150//191 148//191
f 143//192 135//192 144//192 154//192
f 125//193 129//193 138//193 136//193
f 131//194 123//194 132//194 142//194
f 113//195 117//195 126//195 124//195
f 119//196 111//196 120//196 130//196
f 101//197 105//197 114//197 112//197
f 107//198 99//198 108//198 118//198
f 89//199 93//199 102//199 100//199
f 95//200 87//200 96//200 106//200
f 67//201 71//201 78//201 75//201
f 73//202 65//202 204//202 82//202
f 55//203 59//203 68//203 66//203
f 61//204 53//204 62//204 72//204
f 43//205 47//205 56//205 54//205
f 49//206 41//206 50//206 60//206
f 31//207 35//207 44//207 42//207
f 37//208 29//208 38//208 48//208
f 19//209 18//209 32//209 30//209
f 209//210 21//210 26//210 36//210
f 232//211 223//211 192//211 197//211
f 230//212 227//212 200//212 202//212
f 222//213 230//213 202//213 193//213
f 227//214 226//214 196//214 200//214
f 226//215 232//215 197//215 196//215
f 223//216 222//216 193//216 192//216
f 83//217 205//217 84//217 94//217
f 76//218 81//218 90//218 88//218
f 80//219 83//219 94//219 91//219
f 81//220 80//220 91//220 90//220
f 77//221 76//221 88//221 85//221
f 205//222 77//222 85//222 84//222
