# Blender v2.79 (sub 0) OBJ File: 'sweets.blend'
# www.blender.org
mtllib candy_cane.mtl
o Candy_Cane
v 0.166485 1.296656 0.040695
v 0.198452 1.333883 0.039793
v 0.189174 1.329238 0.053170
v 0.157214 1.292019 0.054071
v 0.174519 1.329063 0.061669
v 0.142580 1.291870 0.062569
v 0.169291 1.306848 0.027480
v 0.201236 1.344050 0.026578
v 0.125734 1.293424 0.063011
v 0.157658 1.330600 0.062111
v 0.142595 1.330424 0.054397
v 0.110672 1.293249 0.055297
v 0.198894 1.358686 0.018506
v 0.166998 1.321543 0.019405
v 0.068786 1.251396 0.043343
v 0.100709 1.288571 0.042443
v 0.097211 1.278338 0.029426
v 0.065288 1.241163 0.030326
v 0.078749 1.256074 0.056198
v 0.099076 1.263617 0.021288
v 0.067153 1.226442 0.022188
v 0.103153 1.247193 0.021206
v 0.071230 1.210017 0.022107
v 0.110657 1.254694 0.063470
v 0.093811 1.256249 0.063912
v 0.134562 1.259480 0.041595
v 0.125291 1.254844 0.054972
v 0.137368 1.269673 0.028380
v 0.135076 1.284368 0.020306
v 0.034296 1.205071 0.031200
v 0.042546 1.197786 0.022882
v 0.046826 1.218898 0.057098
v 0.036863 1.214221 0.044243
v 0.053007 1.188797 0.022621
v 0.070717 1.185130 0.043396
v 0.102640 1.222305 0.042495
v 0.093368 1.217669 0.055872
v 0.062376 1.181577 0.056746
v 0.078734 1.217519 0.064370
v 0.061888 1.219074 0.064812
v 0.105445 1.232498 0.029280
v 0.132632 1.325747 0.041542
v 0.129134 1.315513 0.028525
v 0.130999 1.300793 0.020388
v 0.054127 1.188863 0.065064
v 0.043666 1.197852 0.065326
v 0.235971 1.570054 -0.019475
v 0.204456 1.553568 -0.028060
v 0.217552 1.550354 -0.035778
v 0.247740 1.561987 -0.025605
v 0.224584 1.581283 -0.020742
v 0.188579 1.556910 -0.027955
v 0.227339 1.552353 -0.047651
v 0.260438 1.560750 -0.034455
v 0.234687 1.561908 -0.058217
v 0.274181 1.566802 -0.040068
v 0.065263 1.178779 0.043550
v 0.073522 1.195322 0.030181
v 0.241115 1.577074 -0.061998
v 0.203452 1.539459 -0.063863
v 0.198364 1.548350 -0.070663
v 0.267251 1.565391 -0.001098
v 0.275178 1.553635 -0.007488
v 0.263359 1.580946 -0.000513
v 0.288001 1.547612 -0.014030
v 0.303892 1.546475 -0.015163
v 0.258003 1.604089 -0.024023
v 0.204083 1.590401 -0.045517
v 0.213586 1.589717 -0.030387
v 0.261023 1.595592 -0.008587
v 0.247437 1.592738 -0.056177
v 0.196052 1.565822 -0.070159
v 0.197803 1.581697 -0.060690
v 0.253363 1.603137 -0.041981
v 0.198365 1.548303 -0.070640
v 0.285706 1.541476 0.019663
v 0.288846 1.528836 0.011210
v 0.289434 1.556281 0.024544
v 0.298642 1.518413 0.005163
v 0.311737 1.509219 0.006360
v 0.302723 1.582861 0.009074
v 0.296681 1.571205 0.021300
v 0.298445 1.585127 -0.026208
v 0.303846 1.587837 -0.008680
v 0.287697 1.576662 -0.037694
v 0.283718 1.507990 0.034328
v 0.283059 1.497524 0.022890
v 0.292188 1.517323 0.044229
v 0.288229 1.484900 0.015481
v 0.294450 1.470094 0.015750
v 0.320210 1.535156 0.040484
v 0.306113 1.526446 0.047160
v 0.328412 1.546209 0.007544
v 0.328906 1.542215 0.025675
v 0.318984 1.547061 -0.007625
v 0.260068 1.474144 0.037950
v 0.256527 1.463860 0.024935
v 0.270184 1.479003 0.050799
v 0.258463 1.449224 0.016794
v 0.262685 1.432973 0.016707
v 0.303217 1.480506 0.057303
v 0.285449 1.479560 0.058440
v 0.325167 1.491661 0.031431
v 0.318229 1.484591 0.047156
v 0.322296 1.500267 0.016022
v 0.228215 1.437053 0.038847
v 0.224690 1.426789 0.025832
v 0.238287 1.441860 0.051698
v 0.226610 1.412133 0.017692
v 0.230789 1.395829 0.017606
v 0.270499 1.440840 0.058959
v 0.253507 1.442222 0.059407
v 0.294432 1.445660 0.037083
v 0.285204 1.441074 0.050458
v 0.297086 1.455672 0.023874
v 0.196362 1.399962 0.039745
v 0.192855 1.389717 0.026729
v 0.206391 1.404717 0.052598
v 0.194758 1.375041 0.018589
v 0.238506 1.403581 0.059863
v 0.221557 1.405014 0.060308
v 0.262440 1.408401 0.037987
v 0.253195 1.403795 0.051363
v 0.265136 1.418464 0.024775
v 0.164510 1.362870 0.040643
v 0.161020 1.352645 0.027626
v 0.174496 1.367573 0.053497
v 0.162906 1.337949 0.019488
v 0.206513 1.366322 0.060766
v 0.189608 1.367807 0.061210
v 0.230446 1.371142 0.038890
v 0.221185 1.366516 0.052267
v 0.233186 1.381257 0.025677
v 0.031410 1.207870 0.044397
v 0.061684 1.181536 0.030515
v 0.034988 1.205113 0.057432
v 0.048336 1.193324 0.043973
v 0.200088 1.537802 -0.038934
v 0.193062 1.545379 -0.030120
v 0.185891 1.554978 -0.028440
v 0.204025 1.535596 -0.051866
v 0.177964 1.571629 -0.050238
v 0.179855 1.565474 -0.036484
v 0.181557 1.570021 -0.063627
v 0.189393 1.561036 -0.071362
v 0.190931 1.553721 -0.051135
vt 0.704950 0.447884
vt 0.704949 0.477159
vt 0.707493 0.471306
vt 0.707493 0.442037
vt 0.704950 0.465439
vt 0.704950 0.436190
vt 0.698292 0.453731
vt 0.698292 0.482986
vt 0.698292 0.430343
vt 0.698292 0.459578
vt 0.690063 0.453731
vt 0.690063 0.424497
vt 0.690063 0.488786
vt 0.690063 0.459577
vt 0.392461 0.399049
vt 0.392461 0.428284
vt 0.389918 0.422437
vt 0.389918 0.393202
vt 0.399119 0.404896
vt 0.399119 0.434130
vt 0.392461 0.416590
vt 0.392461 0.387356
vt 0.399119 0.410743
vt 0.399119 0.381509
vt 0.414005 0.416590
vt 0.414005 0.445824
vt 0.407348 0.439977
vt 0.407348 0.410743
vt 0.414005 0.428284
vt 0.414005 0.457518
vt 0.416548 0.451671
vt 0.416548 0.422437
vt 0.407348 0.434130
vt 0.407348 0.463365
vt 0.399119 0.469211
vt 0.399119 0.439977
vt 0.680862 0.355187
vt 0.680862 0.383569
vt 0.683405 0.377722
vt 0.683405 0.355187
vt 0.690063 0.366028
vt 0.690063 0.395262
vt 0.683405 0.389415
vt 0.683405 0.360181
vt 0.690063 0.371875
vt 0.690063 0.355187
vt 0.414005 0.369815
vt 0.414005 0.399049
vt 0.416548 0.393202
vt 0.416548 0.364821
vt 0.704950 0.377722
vt 0.704950 0.406956
vt 0.698292 0.401109
vt 0.698292 0.371875
vt 0.704950 0.389415
vt 0.704950 0.418650
vt 0.707493 0.412803
vt 0.707493 0.383569
vt 0.698292 0.395262
vt 0.698292 0.424497
vt 0.690063 0.430343
vt 0.690063 0.401109
vt 0.683405 0.447884
vt 0.683405 0.418650
vt 0.680862 0.412803
vt 0.680862 0.442037
vt 0.683405 0.436190
vt 0.683405 0.406956
vt 0.414005 0.364821
vt 0.414005 0.387356
vt 0.407348 0.381509
vt 0.407348 0.364821
vt 0.333714 0.608882
vt 0.324134 0.589271
vt 0.327423 0.592990
vt 0.338570 0.609872
vt 0.325484 0.609552
vt 0.317165 0.584613
vt 0.326415 0.597827
vt 0.340701 0.614342
vt 0.322565 0.605122
vt 0.342042 0.622482
vt 0.704950 0.355187
vt 0.704950 0.360181
vt 0.707493 0.355187
vt 0.407348 0.375662
vt 0.407348 0.404896
vt 0.609870 0.604889
vt 0.613509 0.595488
vt 0.606910 0.573256
vt 0.599889 0.575376
vt 0.644131 0.609090
vt 0.624658 0.599248
vt 0.629514 0.600238
vt 0.648614 0.606921
vt 0.637987 0.614610
vt 0.616429 0.599918
vt 0.631646 0.604708
vt 0.653083 0.609250
vt 0.632986 0.612848
vt 0.659015 0.614922
vt 0.620688 0.623258
vt 0.597418 0.596350
vt 0.606362 0.599567
vt 0.629757 0.620418
vt 0.609312 0.614369
vt 0.593709 0.582378
vt 0.592615 0.590137
vt 0.613117 0.621221
vt 0.308968 0.584989
vt 0.308945 0.585010
vt 0.315966 0.582890
vt 0.374705 0.614846
vt 0.353187 0.618724
vt 0.357670 0.616555
vt 0.376966 0.610440
vt 0.373122 0.622940
vt 0.347043 0.624244
vt 0.362139 0.618884
vt 0.381849 0.609596
vt 0.368071 0.624556
vt 0.390056 0.610511
vt 0.364483 0.640300
vt 0.329744 0.632892
vt 0.338813 0.630052
vt 0.370049 0.632544
vt 0.350124 0.640050
vt 0.318367 0.624003
vt 0.322173 0.630855
vt 0.357283 0.643182
vt 0.344828 0.632169
vt 0.318926 0.614523
vt 0.680420 0.589128
vt 0.665649 0.605213
vt 0.667910 0.600806
vt 0.679554 0.584262
vt 0.684048 0.596533
vt 0.664066 0.613306
vt 0.672793 0.599962
vt 0.682928 0.580639
vt 0.681001 0.600877
vt 0.690001 0.576354
vt 0.687685 0.615531
vt 0.655427 0.630666
vt 0.660993 0.622910
vt 0.687409 0.606039
vt 0.676049 0.624080
vt 0.641069 0.630416
vt 0.648227 0.633548
vt 0.683677 0.622266
vt 0.667067 0.620969
vt 0.635772 0.622535
vt 0.392464 0.574218
vt 0.389476 0.598762
vt 0.388610 0.593896
vt 0.389921 0.568332
vt 0.399120 0.580206
vt 0.393104 0.606167
vt 0.391984 0.590273
vt 0.392463 0.562551
vt 0.399057 0.585988
vt 0.399119 0.556839
vt 0.413262 0.593650
vt 0.396741 0.625165
vt 0.396465 0.615673
vt 0.407280 0.586306
vt 0.409164 0.607510
vt 0.385105 0.633714
vt 0.392733 0.631900
vt 0.414149 0.601443
vt 0.400126 0.610457
vt 0.376123 0.630603
vt 0.683407 0.535415
vt 0.683408 0.564584
vt 0.680865 0.558698
vt 0.680864 0.529544
vt 0.690063 0.541363
vt 0.690064 0.570573
vt 0.683407 0.552917
vt 0.683406 0.523748
vt 0.690063 0.547205
vt 0.690063 0.517996
vt 0.704948 0.553338
vt 0.704206 0.584016
vt 0.698224 0.576672
vt 0.698291 0.547356
vt 0.704947 0.565058
vt 0.700109 0.597876
vt 0.705093 0.591809
vt 0.707490 0.559251
vt 0.698291 0.570763
vt 0.691070 0.600823
vt 0.392462 0.515880
vt 0.392462 0.545049
vt 0.389920 0.539178
vt 0.389919 0.510025
vt 0.399119 0.521788
vt 0.399119 0.550997
vt 0.392462 0.533382
vt 0.392461 0.504213
vt 0.399119 0.527630
vt 0.399119 0.498420
vt 0.414004 0.533672
vt 0.414003 0.562972
vt 0.407347 0.556990
vt 0.407348 0.527731
vt 0.414004 0.545392
vt 0.414003 0.574692
vt 0.416546 0.568885
vt 0.416547 0.539570
vt 0.407347 0.551138
vt 0.407347 0.580397
vt 0.683405 0.477078
vt 0.683406 0.506246
vt 0.680863 0.500391
vt 0.680862 0.471237
vt 0.690063 0.482945
vt 0.690063 0.512154
vt 0.683406 0.494579
vt 0.683405 0.465410
vt 0.704949 0.494739
vt 0.704949 0.524038
vt 0.698292 0.518097
vt 0.698292 0.488837
vt 0.704949 0.506459
vt 0.704948 0.535758
vt 0.707491 0.529936
vt 0.707492 0.500621
vt 0.698292 0.512245
vt 0.698291 0.541504
vt 0.392461 0.457518
vt 0.392461 0.486712
vt 0.389918 0.480871
vt 0.389918 0.451671
vt 0.399119 0.463365
vt 0.399119 0.492579
vt 0.392461 0.475044
vt 0.392461 0.445824
vt 0.414005 0.475073
vt 0.414005 0.504373
vt 0.407348 0.498471
vt 0.407348 0.469212
vt 0.414005 0.486793
vt 0.414005 0.516092
vt 0.416548 0.510255
vt 0.416548 0.480940
vt 0.407348 0.492620
vt 0.407348 0.521879
vt 0.392461 0.364821
vt 0.392461 0.369815
vt 0.389918 0.364821
vt 0.698292 0.355187
vt 0.698292 0.366028
vt 0.399119 0.364821
vt 0.399119 0.375662
vt 0.694177 0.355187
vt 0.403233 0.364821
vt 0.614677 0.570926
vt 0.618367 0.583356
vt 0.615079 0.579638
vt 0.612671 0.571527
vt 0.608109 0.574979
vt 0.607541 0.573066
vt 0.612433 0.571599
vt 0.617359 0.588194
vt 0.306474 0.605984
vt 0.300955 0.587393
vt 0.308292 0.585192
vt 0.315418 0.609201
vt 0.301671 0.599771
vt 0.298238 0.588208
vt 0.302765 0.592012
vt 0.301358 0.587272
vt 0.599236 0.575558
vt 0.602080 0.574705
vt 0.599913 0.575355
vt 0.311136 0.584339
vn 0.7293 -0.6192 0.2909
vn 0.4671 -0.3817 0.7976
vn 0.7130 -0.6202 -0.3270
vn -0.4244 0.3843 0.8199
vn 0.4244 -0.3843 -0.8199
vn -0.7293 0.6192 -0.2909
vn -0.7130 0.6202 0.3270
vn -0.4671 0.3818 -0.7976
vn -0.0264 -0.0016 -0.9997
vn 0.0264 0.0016 0.9997
vn 0.4671 -0.3818 0.7976
vn -0.4671 0.3817 -0.7976
vn 0.7293 -0.6193 0.2908
vn 0.0921 -0.6845 0.7231
vn -0.1294 -0.1642 0.9779
vn 0.2243 -0.9520 0.2084
vn 0.3286 -0.8565 -0.3979
vn -0.7293 0.6192 -0.2908
vn -0.4594 -0.7535 0.4704
vn -0.4807 -0.2529 0.8396
vn -0.3155 -0.9458 -0.0771
vn -0.0014 -0.8053 -0.5928
vn -0.3336 0.8565 0.3939
vn -0.0852 0.6805 -0.7278
vn -0.2315 0.9518 -0.2011
vn 0.1343 0.1701 -0.9762
vn 0.4257 -0.3837 -0.8195
vn -0.8721 -0.4726 0.1265
vn -0.7713 -0.1168 0.6257
vn -0.6750 -0.6026 -0.4257
vn -0.1947 -0.5512 -0.8113
vn -0.0025 0.8084 0.5887
vn 0.4647 0.7474 -0.4748
vn 0.3104 0.9475 0.0762
vn 0.4858 0.2558 -0.8358
vn -0.9832 0.0463 -0.1764
vn -0.8868 0.1903 0.4211
vn -0.7151 -0.0577 -0.6966
vn -0.1711 -0.1967 -0.9654
vn 0.1948 0.5568 0.8075
vn 0.8752 0.4666 -0.1279
vn 0.6710 0.6065 0.4265
vn 0.7758 0.1158 -0.6203
vn -0.7706 0.5451 -0.3302
vn -0.7849 0.5396 0.3047
vn -0.4696 0.3419 -0.8140
vn -0.0214 -0.0131 -0.9997
vn 0.1751 0.2017 0.9637
vn 0.9840 -0.0535 0.1698
vn 0.7088 0.0649 0.7024
vn 0.8876 -0.1952 -0.4173
vn -0.7293 0.6193 -0.2909
vn -0.7131 0.6202 0.3269
vn -0.4671 0.3818 -0.7975
vn -0.0264 -0.0015 -0.9997
vn 0.0455 -0.0042 0.9990
vn 0.8039 -0.5500 0.2263
vn 0.5313 -0.3746 0.7599
vn 0.7727 -0.5294 -0.3502
vn -0.7130 0.6202 0.3269
vn 0.0264 0.0015 0.9996
vn 0.7294 -0.6192 0.2909
vn 0.4671 -0.3817 0.7975
vn 0.7131 -0.6202 -0.3269
vn -0.6514 -0.7585 0.0184
vn 0.2937 -0.5965 0.7469
vn -0.0351 -0.1976 0.9797
vn 0.5218 -0.8003 0.2954
vn 0.5935 -0.7574 -0.2722
vn -0.5818 0.7096 0.3975
vn -0.5372 0.8082 -0.2412
vn -0.2225 0.5174 -0.8263
vn 0.1444 0.0476 -0.9884
vn -0.8046 -0.5753 -0.1468
vn -0.8037 -0.5765 -0.1473
vn -0.9347 -0.1810 -0.3059
usemtl Mat
s off
f 1/1/1 2/2/1 3/3/1 4/4/1
f 4/4/2 3/3/2 5/5/2 6/6/2
f 7/7/3 8/8/3 2/2/3 1/1/3
f 9/9/4 10/10/4 11/11/4 12/12/4
f 13/13/5 8/8/5 7/7/5 14/14/5
f 15/15/6 16/16/6 17/17/6 18/18/6
f 19/19/7 12/20/7 16/16/7 15/15/7
f 18/18/8 17/17/8 20/21/8 21/22/8
f 21/22/9 20/21/9 22/23/9 23/24/9
f 24/25/10 6/26/10 9/27/10 25/28/10
f 26/29/1 1/30/1 4/31/1 27/32/1
f 27/32/11 4/31/11 6/26/11 24/25/11
f 28/33/3 7/34/3 1/30/3 26/29/3
f 25/28/4 9/27/4 12/20/4 19/19/4
f 14/35/5 7/34/5 28/33/5 29/36/5
f 30/37/12 18/38/12 21/39/12 31/40/12
f 32/41/7 19/42/7 15/43/7 33/44/7
f 31/40/9 21/39/9 23/45/9 34/46/9
f 35/47/1 36/48/1 37/49/1 38/50/1
f 39/51/10 24/52/10 25/53/10 40/54/10
f 36/55/13 26/56/13 27/57/13 37/58/13
f 37/58/2 27/57/2 24/52/2 39/51/2
f 41/59/3 28/60/3 26/56/3 36/55/3
f 40/54/4 25/53/4 19/42/4 32/41/4
f 29/61/5 28/60/5 41/59/5 22/62/5
f 12/12/7 11/11/7 42/63/7 16/64/7
f 17/65/12 43/66/12 44/67/12 20/68/12
f 20/68/9 44/67/9 29/61/9 22/62/9
f 6/6/10 5/5/10 10/10/10 9/9/10
f 45/69/10 39/70/10 40/71/10 46/72/10
f 47/73/14 48/74/14 49/75/14 50/76/14
f 51/77/15 52/78/15 48/74/15 47/73/15
f 50/76/16 49/75/16 53/79/16 54/80/16
f 54/80/17 53/79/17 55/81/17 56/82/17
f 57/83/1 35/84/1 38/85/1
f 38/50/11 37/49/11 39/70/11 45/69/11
f 58/86/3 41/87/3 36/48/3 35/47/3
f 16/64/18 42/63/18 43/66/18 17/65/18
f 59/88/5 55/89/5 60/90/5 61/91/5
f 22/23/5 41/87/5 58/86/5 23/24/5
f 62/92/19 47/93/19 50/94/19 63/95/19
f 64/96/20 51/97/20 47/93/20 62/92/20
f 63/95/21 50/94/21 54/98/21 65/99/21
f 65/99/22 54/98/22 56/100/22 66/101/22
f 67/102/23 68/103/23 69/104/23 70/105/23
f 71/106/24 72/107/24 73/108/24 74/109/24
f 74/109/25 73/108/25 68/103/25 67/102/25
f 59/88/26 61/91/26 72/107/26 71/106/26
f 70/105/4 69/104/4 51/97/4 64/96/4
f 75/110/27 61/111/27 60/112/27
f 76/113/28 62/114/28 63/115/28 77/116/28
f 78/117/29 64/118/29 62/114/29 76/113/29
f 77/116/30 63/115/30 65/119/30 79/120/30
f 79/120/31 65/119/31 66/121/31 80/122/31
f 81/123/32 67/124/32 70/125/32 82/126/32
f 83/127/33 71/128/33 74/129/33 84/130/33
f 84/130/34 74/129/34 67/124/34 81/123/34
f 85/131/35 59/132/35 71/128/35 83/127/35
f 82/126/4 70/125/4 64/118/4 78/117/4
f 55/81/5 59/132/5 85/131/5 56/82/5
f 86/133/36 76/134/36 77/135/36 87/136/36
f 88/137/37 78/138/37 76/134/37 86/133/37
f 87/136/38 77/135/38 79/139/38 89/140/38
f 89/140/39 79/139/39 80/141/39 90/142/39
f 91/143/40 81/144/40 82/145/40 92/146/40
f 93/147/41 83/148/41 84/149/41 94/150/41
f 94/150/42 84/149/42 81/144/42 91/143/42
f 95/151/43 85/152/43 83/148/43 93/147/43
f 92/146/4 82/145/4 78/138/4 88/137/4
f 56/100/5 85/152/5 95/151/5 66/101/5
f 96/153/44 86/154/44 87/155/44 97/156/44
f 98/157/45 88/158/45 86/154/45 96/153/45
f 97/156/46 87/155/46 89/159/46 99/160/46
f 99/160/47 89/159/47 90/161/47 100/162/47
f 101/163/48 91/164/48 92/165/48 102/166/48
f 103/167/49 93/168/49 94/169/49 104/170/49
f 104/170/50 94/169/50 91/164/50 101/163/50
f 105/171/51 95/172/51 93/168/51 103/167/51
f 102/166/4 92/165/4 88/158/4 98/157/4
f 66/121/5 95/172/5 105/171/5 80/122/5
f 106/173/52 96/174/52 97/175/52 107/176/52
f 108/177/53 98/178/53 96/174/53 106/173/53
f 107/176/54 97/175/54 99/179/54 109/180/54
f 109/180/55 99/179/55 100/181/55 110/182/55
f 111/183/56 101/184/56 102/185/56 112/186/56
f 113/187/57 103/188/57 104/189/57 114/190/57
f 114/190/58 104/189/58 101/184/58 111/183/58
f 115/191/59 105/192/59 103/188/59 113/187/59
f 112/186/4 102/185/4 98/178/4 108/177/4
f 80/141/5 105/192/5 115/191/5 90/142/5
f 116/193/52 106/194/52 107/195/52 117/196/52
f 118/197/60 108/198/60 106/194/60 116/193/60
f 117/196/8 107/195/8 109/199/8 119/200/8
f 119/200/55 109/199/55 110/201/55 13/202/55
f 120/203/61 111/204/61 112/205/61 121/206/61
f 122/207/62 113/208/62 114/209/62 123/210/62
f 123/210/63 114/209/63 111/204/63 120/203/63
f 124/211/64 115/212/64 113/208/64 122/207/64
f 121/206/4 112/205/4 108/198/4 118/197/4
f 90/161/5 115/212/5 124/211/5 100/162/5
f 125/213/52 116/214/52 117/215/52 126/216/52
f 127/217/7 118/218/7 116/214/7 125/213/7
f 126/216/8 117/215/8 119/219/8 128/220/8
f 128/220/9 119/219/9 13/13/9 14/14/9
f 129/221/10 120/222/10 121/223/10 130/224/10
f 131/225/62 122/226/62 123/227/62 132/228/62
f 132/228/2 123/227/2 120/222/2 129/221/2
f 133/229/64 124/230/64 122/226/64 131/225/64
f 130/224/4 121/223/4 118/218/4 127/217/4
f 100/181/5 124/230/5 133/229/5 110/182/5
f 42/231/6 125/232/6 126/233/6 43/234/6
f 11/235/7 127/236/7 125/232/7 42/231/7
f 43/234/8 126/233/8 128/237/8 44/238/8
f 44/238/9 128/237/9 14/35/9 29/36/9
f 5/239/10 129/240/10 130/241/10 10/242/10
f 2/243/1 131/244/1 132/245/1 3/246/1
f 3/246/2 132/245/2 129/240/2 5/239/2
f 8/247/3 133/248/3 131/244/3 2/243/3
f 10/242/4 130/241/4 127/236/4 11/235/4
f 110/201/5 133/248/5 8/247/5 13/202/5
f 134/249/18 33/250/18 30/251/18
f 35/84/3 57/83/3 135/252/3 58/253/3
f 34/46/5 23/45/5 58/253/5 135/252/5
f 136/254/7 32/255/7 33/250/7 134/249/7
f 32/255/4 136/254/4 46/72/4 40/71/4
f 33/44/18 15/43/18 18/38/18 30/37/18
f 57/83/65 137/256/65 135/252/65
f 38/85/65 137/256/65 57/83/65
f 45/69/65 137/257/65 38/50/65
f 46/72/65 137/257/65 45/69/65
f 138/258/66 49/259/66 48/260/66 139/261/66
f 52/262/67 140/263/67 139/261/67 48/260/67
f 49/259/68 138/258/68 141/264/68 53/265/68
f 60/90/69 55/89/69 53/265/69 141/264/69
f 68/266/70 142/267/70 143/268/70 69/269/70
f 73/270/71 144/271/71 142/267/71 68/266/71
f 72/272/72 145/273/72 144/271/72 73/270/72
f 61/111/73 145/273/73 72/272/73
f 136/254/65 137/257/65 46/72/65
f 51/77/4 69/269/4 143/268/4 52/78/4
f 140/263/4 52/262/4 143/274/4
f 60/90/74 146/275/74 75/276/74
f 141/264/74 146/275/74 60/90/74
f 138/258/74 146/275/74 141/264/74
f 139/261/74 146/275/74 138/258/74
f 140/263/74 146/275/74 139/261/74
f 143/274/74 146/275/74 140/263/74
f 142/267/74 146/277/74 143/268/74
f 144/271/74 146/277/74 142/267/74
f 145/273/74 146/277/74 144/271/74
f 61/111/75 146/277/75 145/273/75
f 75/110/76 146/277/76 61/111/76
f 134/249/65 137/257/65 136/254/65
f 30/251/65 137/257/65 134/249/65
f 31/40/65 137/256/65 30/37/65
f 34/46/65 137/256/65 31/40/65
f 135/252/65 137/256/65 34/46/65
