# Blender v2.79 (sub 0) OBJ File: 'sweets.blend'
# www.blender.org
mtllib heart.mtl
o Heart.2
v 0.000000 0.281089 0.130997
v 0.077505 0.400812 0.167734
v -0.002240 0.401200 0.178093
v 0.077835 0.279988 0.118320
v 0.148591 0.401307 0.147722
v 0.000000 0.144319 0.069380
v 0.216781 0.401575 0.111291
v 0.147759 0.270994 0.077050
v 0.275699 0.402173 0.066695
v 0.084277 0.491928 0.168708
v -0.000083 0.490980 0.174587
v 0.077815 0.581996 0.141890
v -0.001261 0.591361 0.131136
v 0.145589 0.580299 0.139859
v 0.222718 0.496253 0.119413
v 0.147201 0.491773 0.159107
v 0.211407 0.584326 0.120713
v 0.263835 0.585409 0.075862
v -0.000910 0.603351 0.030015
v -0.000955 0.604684 0.030080
v 0.000051 0.586498 -0.076321
v 0.053539 0.663702 0.067648
v 0.142006 0.702681 0.000226
v 0.053381 0.665468 0.067645
v 0.146313 0.657114 0.101076
v 0.232402 0.663687 0.037978
v 0.308522 0.396678 -0.004853
v 0.172425 0.271539 -0.004995
v 0.298115 0.380719 -0.080033
v 0.324019 0.494422 -0.000026
v 0.289208 0.499423 0.074774
v 0.296404 0.585559 0.000272
v 0.321108 0.585425 -0.072131
v 0.234366 0.586543 -0.096575
v 0.144255 0.585420 -0.120966
v 0.142549 0.656906 -0.069784
v 0.253337 0.665087 -0.042571
v 0.000465 0.388935 -0.105643
v -0.002483 0.478611 -0.090514
v 0.057655 0.479005 -0.106260
v 0.221049 0.371730 -0.100469
v 0.072235 0.269340 -0.024362
v 0.143811 0.392158 -0.120997
v -0.005226 0.263114 -0.011061
v 0.213066 0.464625 -0.139718
v 0.325490 0.474596 -0.080307
v 0.143650 0.486534 -0.143118
v 0.064678 0.580484 -0.088720
v 0.064804 0.582344 -0.089109
v 0.048012 0.664704 -0.029464
v 0.000000 0.393075 0.038303
v 0.006198 0.487179 0.023987
v -0.000993 0.605970 0.030120
v -0.077505 0.400812 0.167734
v 0.002240 0.401200 0.178093
v -0.148591 0.401307 0.147722
v -0.077835 0.279988 0.118320
v -0.216781 0.401575 0.111291
v -0.275699 0.402173 0.066695
v -0.147759 0.270994 0.077050
v 0.000083 0.490980 0.174587
v -0.084277 0.491928 0.168708
v 0.001261 0.591361 0.131136
v -0.077815 0.581996 0.141890
v -0.145589 0.580299 0.139859
v -0.147201 0.491773 0.159107
v -0.222718 0.496253 0.119413
v -0.211407 0.584326 0.120713
v -0.263835 0.585409 0.075862
v 0.000955 0.604684 0.030080
v 0.000910 0.603351 0.030015
v -0.000051 0.586498 -0.076321
v -0.142006 0.702681 0.000226
v -0.053539 0.663702 0.067648
v -0.053381 0.665468 0.067645
v -0.146313 0.657114 0.101076
v -0.232402 0.663687 0.037978
v -0.308522 0.396678 -0.004853
v -0.298115 0.380719 -0.080033
v -0.172425 0.271539 -0.004995
v -0.289208 0.499423 0.074774
v -0.324019 0.494422 -0.000026
v -0.296404 0.585559 0.000272
v -0.321108 0.585425 -0.072131
v -0.144255 0.585420 -0.120966
v -0.234366 0.586543 -0.096575
v -0.142549 0.656906 -0.069784
v -0.253337 0.665087 -0.042571
v -0.000465 0.388935 -0.105643
v 0.002483 0.478611 -0.090514
v -0.057655 0.479005 -0.106260
v -0.221049 0.371730 -0.100469
v -0.143811 0.392158 -0.120997
v -0.072235 0.269340 -0.024362
v 0.005226 0.263114 -0.011061
v -0.325490 0.474596 -0.080307
v -0.213066 0.464625 -0.139718
v -0.143650 0.486534 -0.143118
v -0.064678 0.580484 -0.088720
v -0.064804 0.582344 -0.089109
v -0.048012 0.664704 -0.029464
v -0.006198 0.487179 0.023987
v 0.000993 0.605970 0.030120
vt 0.125000 0.166667
vt 0.250000 0.333333
vt 0.000000 0.333333
vt 0.375000 0.166667
vt 0.500000 0.333333
vt 0.250000 0.000000
vt 0.625000 0.166667
vt 0.750000 0.333333
vt 0.875000 0.166667
vt 1.000000 0.333333
vt 0.750000 0.000000
vt 0.250000 0.500000
vt 0.000000 0.500000
vt 0.250000 0.666667
vt 0.000000 0.666667
vt 0.500000 0.666667
vt 0.750000 0.500000
vt 0.500000 0.500000
vt 0.750000 0.666667
vt 1.000000 0.666667
vt 0.500000 0.666667
vt 0.500000 0.833333
vt 0.000000 0.666667
vt 1.000000 0.833333
vt 0.250000 0.833333
vt 0.500000 1.000000
vt 0.250000 1.000000
vt 0.000000 0.833333
vt 0.750000 0.833333
vt 0.500000 0.833333
vt 0.750000 1.000000
vt 1.000000 1.000000
vt 0.250000 0.166667
vt 0.500000 0.333333
vt 0.000000 0.333333
vt 0.750000 0.166667
vt 1.000000 0.333333
vt 0.500000 0.000000
vt 0.500000 0.500000
vt 0.000000 0.500000
vt 0.500000 0.666667
vt 0.000000 0.666667
vt 1.000000 0.666667
vt 0.250000 0.666667
vt 0.500000 0.666667
vt 0.500000 0.833333
vt 0.250000 0.833333
vt 0.750000 0.333333
vt 1.000000 0.333333
vt 1.000000 0.500000
vt 0.750000 0.500000
vt 0.125000 0.166667
vt 0.250000 0.333333
vt 0.000000 0.333333
vt 0.375000 0.166667
vt 0.500000 0.333333
vt 0.625000 0.166667
vt 0.875000 0.166667
vt 0.250000 0.500000
vt 0.000000 0.500000
vt 0.000000 0.666667
vt 0.500000 0.500000
vt 0.750000 0.666667
vt 1.000000 0.666667
vt 0.750000 0.833333
vt 0.750000 1.000000
vt 1.000000 1.000000
vt 0.250000 0.166667
vt 0.500000 0.333333
vt 0.000000 0.333333
vt 0.750000 0.166667
vt 1.000000 0.333333
vt 0.500000 0.500000
vt 0.000000 0.500000
vt 1.000000 0.666667
vt 1.000000 0.500000
vt 1.000000 1.000000
vt 0.500000 1.000000
vt 0.000000 0.833333
vt 0.250000 0.250000
vt 0.000000 0.500000
vt 0.000000 0.000000
vt 0.250000 0.750000
vt 0.000000 1.000000
vt 0.500000 0.500000
vt 0.750000 0.250000
vt 0.750000 0.750000
vt 1.000000 0.500000
vt 1.000000 1.000000
vt 1.000000 0.000000
vt 1.000000 0.500000
vt 1.000000 0.833333
vt 1.000000 0.500000
vt 0.250000 0.333333
vt 0.000000 0.333333
vt 0.500000 0.333333
vt 0.375000 0.166667
vt 0.750000 0.333333
vt 0.625000 0.166667
vt 1.000000 0.333333
vt 0.875000 0.166667
vt 0.000000 0.500000
vt 0.250000 0.500000
vt 0.000000 0.666667
vt 0.250000 0.666667
vt 0.500000 0.666667
vt 0.500000 0.500000
vt 0.750000 0.500000
vt 0.750000 0.666667
vt 1.000000 0.666667
vt 0.500000 0.833333
vt 0.500000 0.666667
vt 0.000000 0.666667
vt 1.000000 0.833333
vt 0.500000 1.000000
vt 0.250000 0.833333
vt 0.250000 1.000000
vt 0.000000 0.833333
vt 0.500000 0.833333
vt 0.750000 0.833333
vt 0.750000 1.000000
vt 1.000000 1.000000
vt 0.500000 0.333333
vt 0.250000 0.166667
vt 0.000000 0.333333
vt 1.000000 0.333333
vt 0.750000 0.166667
vt 0.000000 0.500000
vt 0.500000 0.500000
vt 0.000000 0.666667
vt 0.500000 0.666667
vt 1.000000 0.666667
vt 0.500000 0.666667
vt 0.250000 0.666667
vt 0.500000 0.833333
vt 0.250000 0.833333
vt 1.000000 0.333333
vt 0.750000 0.333333
vt 1.000000 0.500000
vt 0.750000 0.500000
vt 0.250000 0.333333
vt 0.125000 0.166667
vt 0.000000 0.333333
vt 0.500000 0.333333
vt 0.375000 0.166667
vt 0.625000 0.166667
vt 0.875000 0.166667
vt 0.000000 0.500000
vt 0.250000 0.500000
vt 0.000000 0.666667
vt 0.500000 0.500000
vt 0.750000 0.666667
vt 1.000000 0.666667
vt 0.750000 0.833333
vt 0.750000 1.000000
vt 1.000000 1.000000
vt 0.250000 0.166667
vt 0.000000 0.333333
vt 1.000000 0.333333
vt 0.000000 0.500000
vt 0.500000 0.500000
vt 1.000000 0.666667
vt 1.000000 0.500000
vt 1.000000 1.000000
vt 0.500000 1.000000
vt 0.000000 0.833333
vt 0.000000 0.500000
vt 0.250000 0.250000
vt 0.000000 0.000000
vt 0.000000 1.000000
vt 0.250000 0.750000
vt 0.500000 0.500000
vt 0.750000 0.750000
vt 0.750000 0.250000
vt 1.000000 1.000000
vt 1.000000 0.500000
vt 1.000000 0.000000
vt 1.000000 0.500000
vt 1.000000 0.833333
vt 1.000000 0.500000
vn 0.1184 -0.3606 0.9252
vn 0.2546 -0.3655 0.8953
vn 0.1413 -0.4066 0.9026
vn 0.1439 -0.3743 0.9161
vn 0.4246 -0.4395 0.7916
vn 0.5364 -0.4678 0.7025
vn 0.3907 -0.5024 0.7714
vn 0.4171 -0.4304 0.8005
vn 0.0691 0.0373 0.9969
vn -0.0777 0.3953 0.9153
vn 0.0359 0.2876 0.9571
vn 0.0633 0.2890 0.9552
vn 0.4676 -0.1033 0.8779
vn 0.2613 0.2096 0.9422
vn 0.6475 0.0720 0.7586
vn 0.4626 0.0463 0.8853
vn -0.9994 -0.0337 -0.0037
vn -0.9994 -0.0335 -0.0074
vn 0.5901 0.0540 0.8055
vn 0.7174 0.0652 0.6936
vn 0.2264 0.4373 0.8703
vn 0.2205 0.8924 0.3938
vn 0.5439 0.5323 0.6487
vn 0.4501 0.5846 0.6750
vn 0.6816 -0.6362 0.3615
vn 0.6755 -0.7347 0.0625
vn 0.6340 -0.7507 0.1856
vn 0.6638 -0.7221 0.1948
vn 0.8910 -0.1591 0.4253
vn 0.8874 0.2570 0.3828
vn 0.9102 0.2748 0.3100
vn 0.8807 0.2656 0.3921
vn 0.2075 0.5727 -0.7930
vn 0.1648 0.5315 -0.8309
vn -0.9990 -0.0369 0.0243
vn -0.2513 0.1530 -0.9558
vn 0.2536 -0.7290 -0.6358
vn 0.0387 -0.6317 -0.7742
vn 0.1581 -0.6492 -0.7440
vn 0.1471 -0.7188 -0.6794
vn -0.0729 -0.5901 -0.8040
vn -0.9993 0.0242 -0.0280
vn -0.0961 -0.5610 -0.8222
vn -0.0891 -0.5959 -0.7981
vn 0.4723 -0.1403 -0.8702
vn 0.2713 0.0815 -0.9590
vn 0.2472 0.2846 -0.9262
vn 0.4385 0.2307 -0.8686
vn -0.3691 -0.2127 -0.9047
vn -0.3785 0.2045 -0.9027
vn -0.1693 0.1792 -0.9691
vn -0.4008 0.1829 -0.8977
vn 0.1947 -0.2235 -0.9551
vn -0.0794 -0.3937 -0.9158
vn 0.2781 -0.3535 -0.8932
vn 0.1158 0.2165 -0.9694
vn -0.3303 0.5443 -0.7712
vn -0.1626 0.8253 -0.5408
vn -0.1248 0.5651 -0.8155
vn -0.2987 0.5191 -0.8008
vn 0.8652 -0.2081 0.4562
vn -0.9998 -0.0127 -0.0153
vn -0.9991 -0.0176 0.0390
vn -0.9991 0.0275 0.0333
vn 0.9834 0.1594 -0.0865
vn -0.9996 0.0252 -0.0130
vn -0.9981 -0.0605 -0.0106
vn -0.9946 -0.0650 0.0803
vn 0.9922 -0.0478 0.1155
vn -0.9987 -0.0294 -0.0409
vn -0.9996 -0.0288 -0.0068
vn -0.9996 -0.0289 -0.0045
vn -0.7629 0.6401 0.0905
vn -0.8159 0.5673 -0.1118
vn -0.3783 0.9256 0.0136
vn -0.7490 0.6616 0.0362
vn 0.3552 0.9285 0.1085
vn 0.7807 0.5657 0.2653
vn 0.8007 0.4890 0.3460
vn 0.8039 0.5531 0.2186
vn 0.1287 -0.0202 0.9915
vn 0.1479 0.2127 0.9659
vn 0.2699 -0.1162 0.9559
vn 0.1507 -0.0218 0.9883
vn 0.4690 -0.1046 0.8770
vn 0.5461 0.1507 0.8241
vn 0.5978 -0.1485 0.7878
vn 0.5577 -0.1056 0.8233
vn -0.0219 0.6688 0.7432
vn -0.0845 0.9067 0.4133
vn 0.0380 0.4501 0.8922
vn -0.2276 0.6169 0.7534
vn -0.9973 0.0591 -0.0431
vn -0.3613 -0.1674 -0.9173
vn -0.9996 0.0233 -0.0174
vn -0.2019 -0.1874 -0.9613
vn 0.8921 -0.1623 0.4217
vn 0.9992 0.0389 0.0087
vn 0.9574 -0.2794 -0.0732
vn 0.9856 -0.1591 0.0573
vn 0.2394 0.5102 -0.8261
vn -0.1077 0.0616 -0.9923
vn -0.2519 0.1320 -0.9587
vn 0.0723 0.8350 -0.5454
vn -0.1184 -0.3606 0.9252
vn -0.2546 -0.3655 0.8953
vn -0.1413 -0.4066 0.9026
vn -0.1439 -0.3743 0.9161
vn -0.4246 -0.4395 0.7916
vn -0.5364 -0.4678 0.7025
vn -0.3907 -0.5024 0.7714
vn -0.4171 -0.4304 0.8005
vn -0.0691 0.0373 0.9969
vn 0.0777 0.3953 0.9153
vn -0.0359 0.2876 0.9571
vn -0.0633 0.2890 0.9552
vn -0.4676 -0.1033 0.8779
vn -0.2613 0.2096 0.9422
vn -0.6475 0.0720 0.7586
vn -0.4626 0.0463 0.8853
vn 0.9994 -0.0337 -0.0037
vn 0.9994 -0.0335 -0.0074
vn -0.5901 0.0540 0.8055
vn -0.7174 0.0652 0.6936
vn -0.2264 0.4373 0.8703
vn -0.2205 0.8924 0.3938
vn -0.5439 0.5323 0.6487
vn -0.4501 0.5846 0.6750
vn -0.6816 -0.6362 0.3615
vn -0.6755 -0.7347 0.0625
vn -0.6340 -0.7507 0.1856
vn -0.6638 -0.7221 0.1948
vn -0.8910 -0.1591 0.4253
vn -0.8874 0.2570 0.3828
vn -0.9102 0.2748 0.3100
vn -0.8807 0.2656 0.3921
vn -0.2075 0.5727 -0.7930
vn -0.1648 0.5315 -0.8309
vn 0.9990 -0.0369 0.0243
vn 0.2513 0.1530 -0.9558
vn -0.2536 -0.7290 -0.6358
vn -0.0387 -0.6317 -0.7742
vn -0.1581 -0.6492 -0.7440
vn -0.1471 -0.7188 -0.6794
vn 0.0729 -0.5901 -0.8040
vn 0.9993 0.0242 -0.0280
vn 0.0961 -0.5610 -0.8222
vn 0.0891 -0.5959 -0.7981
vn -0.4723 -0.1403 -0.8702
vn -0.2713 0.0815 -0.9590
vn -0.2472 0.2846 -0.9262
vn -0.4385 0.2307 -0.8686
vn 0.3691 -0.2127 -0.9047
vn 0.3785 0.2045 -0.9027
vn 0.1693 0.1792 -0.9691
vn 0.4008 0.1829 -0.8977
vn -0.1947 -0.2235 -0.9551
vn 0.0794 -0.3937 -0.9158
vn -0.2781 -0.3535 -0.8932
vn -0.1158 0.2165 -0.9694
vn 0.3303 0.5443 -0.7712
vn 0.1626 0.8253 -0.5408
vn 0.1248 0.5651 -0.8155
vn 0.2987 0.5191 -0.8008
vn -0.8652 -0.2081 0.4562
vn 0.9998 -0.0127 -0.0153
vn 0.9991 -0.0176 0.0390
vn 0.9991 0.0275 0.0333
vn -0.9834 0.1594 -0.0865
vn 0.9996 0.0252 -0.0130
vn 0.9981 -0.0605 -0.0106
vn 0.9946 -0.0650 0.0803
vn -0.9922 -0.0478 0.1155
vn 0.9987 -0.0294 -0.0409
vn 0.9996 -0.0288 -0.0068
vn 0.9996 -0.0289 -0.0045
vn 0.7629 0.6401 0.0905
vn 0.8159 0.5673 -0.1118
vn 0.3783 0.9256 0.0136
vn 0.7490 0.6616 0.0362
vn -0.3552 0.9285 0.1085
vn -0.7807 0.5657 0.2653
vn -0.8007 0.4890 0.3460
vn -0.8039 0.5531 0.2186
vn -0.1287 -0.0202 0.9915
vn -0.1479 0.2127 0.9659
vn -0.2699 -0.1162 0.9559
vn -0.1507 -0.0218 0.9883
vn -0.4690 -0.1046 0.8770
vn -0.5461 0.1507 0.8241
vn -0.5978 -0.1485 0.7878
vn -0.5577 -0.1056 0.8233
vn 0.0219 0.6688 0.7432
vn 0.0845 0.9067 0.4133
vn -0.0380 0.4501 0.8922
vn 0.2276 0.6169 0.7534
vn 0.9973 0.0591 -0.0431
vn 0.3613 -0.1674 -0.9173
vn 0.9996 0.0233 -0.0174
vn 0.2019 -0.1874 -0.9613
vn -0.8921 -0.1623 0.4217
vn -0.9992 0.0389 0.0087
vn -0.9574 -0.2794 -0.0732
vn -0.9856 -0.1591 0.0573
vn -0.2394 0.5102 -0.8261
vn 0.1077 0.0616 -0.9923
vn 0.2519 0.1320 -0.9587
vn -0.0723 0.8350 -0.5454
usemtl Heart_Red
s off
f 1/1/1 2/2/1 3/3/1
f 4/4/2 5/5/2 2/2/2
f 1/1/3 6/6/3 4/4/3
f 1/1/4 4/4/4 2/2/4
f 4/7/5 7/8/5 5/5/5
f 8/9/6 9/10/6 7/8/6
f 4/7/7 6/11/7 8/9/7
f 4/7/8 8/9/8 7/8/8
f 10/12/9 11/13/9 3/3/9
f 12/14/10 13/15/10 11/13/10
f 10/12/11 14/16/11 12/14/11
f 10/12/12 12/14/12 11/13/12
f 15/17/13 16/18/13 5/5/13
f 17/19/14 14/16/14 16/18/14
f 15/17/15 18/20/15 17/19/15
f 15/17/16 17/19/16 16/18/16
f 19/21/17 20/22/17 21/23/17
f 19/21/18 13/24/18 20/22/18
f 22/25/19 23/26/19 24/27/19
f 22/25/20 24/27/20 13/28/20
f 17/29/21 25/30/21 14/16/21
f 26/31/22 23/26/22 25/30/22
f 17/29/23 18/32/23 26/31/23
f 17/29/24 26/31/24 25/30/24
f 8/33/25 27/34/25 9/35/25
f 28/36/26 29/37/26 27/34/26
f 8/33/27 6/38/27 28/36/27
f 8/33/28 28/36/28 27/34/28
f 30/39/29 31/40/29 9/35/29
f 32/41/30 18/42/30 31/40/30
f 30/39/31 33/43/31 32/41/31
f 30/39/32 32/41/32 31/40/32
f 34/44/33 35/45/33 36/46/33
f 34/44/34 36/46/34 37/47/34
f 38/48/35 13/49/35 39/50/35
f 38/48/36 39/50/36 40/51/36
f 28/52/37 41/53/37 29/54/37
f 42/55/38 43/56/38 41/53/38
f 28/52/39 6/6/39 42/55/39
f 28/52/40 42/55/40 41/53/40
f 42/57/41 38/48/41 43/56/41
f 44/58/42 13/49/42 38/48/42
f 42/57/43 6/11/43 44/58/43
f 42/57/44 44/58/44 38/48/44
f 45/59/45 46/60/45 29/54/45
f 34/44/46 33/61/46 46/60/46
f 45/59/47 35/45/47 34/44/47
f 45/59/48 34/44/48 46/60/48
f 40/51/49 47/62/49 43/56/49
f 48/63/50 35/45/50 47/62/50
f 40/51/51 21/64/51 48/63/51
f 40/51/52 48/63/52 47/62/52
f 41/53/53 43/56/53 47/62/53
f 41/53/54 47/62/54 45/59/54
f 41/53/55 45/59/55 29/54/55
f 47/62/56 35/45/56 45/59/56
f 49/65/57 36/46/57 35/45/57
f 50/66/58 23/26/58 36/46/58
f 49/65/59 21/67/59 50/66/59
f 49/65/60 50/66/60 36/46/60
f 44/68/61 51/69/61 13/70/61
f 1/71/62 3/72/62 51/69/62
f 44/68/63 6/38/63 1/71/63
f 44/68/64 1/71/64 51/69/64
f 52/73/65 39/74/65 13/70/65
f 19/21/66 21/23/66 39/74/66
f 52/73/67 13/75/67 19/21/67
f 52/73/68 19/21/68 39/74/68
f 51/69/69 52/73/69 13/70/69
f 11/76/70 13/75/70 52/73/70
f 20/22/71 13/77/71 53/78/71
f 20/22/72 53/78/72 21/79/72
f 24/80/73 53/81/73 13/82/73
f 50/83/74 21/84/74 53/81/74
f 24/80/75 23/85/75 50/83/75
f 24/80/76 50/83/76 53/81/76
f 26/86/77 37/87/77 23/85/77
f 32/88/78 33/89/78 37/87/78
f 26/86/79 18/90/79 32/88/79
f 26/86/80 32/88/80 37/87/80
f 2/2/81 10/12/81 3/3/81
f 16/18/82 14/16/82 10/12/82
f 2/2/83 5/5/83 16/18/83
f 2/2/84 16/18/84 10/12/84
f 7/8/85 15/17/85 5/5/85
f 31/91/86 18/20/86 15/17/86
f 7/8/87 9/10/87 31/91/87
f 7/8/88 31/91/88 15/17/88
f 12/14/89 22/25/89 13/15/89
f 25/30/90 23/26/90 22/25/90
f 12/14/91 14/16/91 25/30/91
f 12/14/92 25/30/92 22/25/92
f 51/69/93 11/76/93 52/73/93
f 48/63/94 49/65/94 35/45/94
f 51/69/95 3/72/95 11/76/95
f 48/63/96 21/92/96 49/65/96
f 27/34/97 30/39/97 9/35/97
f 46/93/98 33/43/98 30/39/98
f 27/34/99 29/37/99 46/93/99
f 27/34/100 46/93/100 30/39/100
f 34/44/101 37/47/101 33/61/101
f 38/48/102 40/51/102 43/56/102
f 39/50/103 21/64/103 40/51/103
f 36/46/104 23/26/104 37/47/104
f 54/94/105 1/1/105 55/95/105
f 56/96/106 57/97/106 54/94/106
f 6/6/107 1/1/107 57/97/107
f 57/97/108 1/1/108 54/94/108
f 58/98/109 57/99/109 56/96/109
f 59/100/110 60/101/110 58/98/110
f 6/11/111 57/99/111 60/101/111
f 60/101/112 57/99/112 58/98/112
f 61/102/113 62/103/113 55/95/113
f 63/104/114 64/105/114 61/102/114
f 65/106/115 62/103/115 64/105/115
f 64/105/116 62/103/116 61/102/116
f 66/107/117 67/108/117 56/96/117
f 65/106/118 68/109/118 66/107/118
f 69/110/119 67/108/119 68/109/119
f 68/109/120 67/108/120 66/107/120
f 70/111/121 71/112/121 72/113/121
f 63/114/122 71/112/122 70/111/122
f 73/115/123 74/116/123 75/117/123
f 75/117/124 74/116/124 63/118/124
f 76/119/125 68/120/125 65/106/125
f 73/115/126 77/121/126 76/119/126
f 69/122/127 68/120/127 77/121/127
f 77/121/128 68/120/128 76/119/128
f 78/123/129 60/124/129 59/125/129
f 79/126/130 80/127/130 78/123/130
f 6/38/131 60/124/131 80/127/131
f 80/127/132 60/124/132 78/123/132
f 81/128/133 82/129/133 59/125/133
f 69/130/134 83/131/134 81/128/134
f 84/132/135 82/129/135 83/131/135
f 83/131/136 82/129/136 81/128/136
f 85/133/137 86/134/137 87/135/137
f 87/135/138 86/134/138 88/136/138
f 63/137/139 89/138/139 90/139/139
f 90/139/140 89/138/140 91/140/140
f 92/141/141 80/142/141 79/143/141
f 93/144/142 94/145/142 92/141/142
f 6/6/143 80/142/143 94/145/143
f 94/145/144 80/142/144 92/141/144
f 89/138/145 94/146/145 93/144/145
f 63/137/146 95/147/146 89/138/146
f 6/11/147 94/146/147 95/147/147
f 95/147/148 94/146/148 89/138/148
f 96/148/149 97/149/149 79/143/149
f 84/150/150 86/134/150 96/148/150
f 85/133/151 97/149/151 86/134/151
f 86/134/152 97/149/152 96/148/152
f 98/151/153 91/140/153 93/144/153
f 85/133/154 99/152/154 98/151/154
f 72/153/155 91/140/155 99/152/155
f 99/152/156 91/140/156 98/151/156
f 93/144/157 92/141/157 98/151/157
f 98/151/158 92/141/158 97/149/158
f 97/149/159 92/141/159 79/143/159
f 85/133/160 98/151/160 97/149/160
f 87/135/161 100/154/161 85/133/161
f 73/115/162 101/155/162 87/135/162
f 72/156/163 100/154/163 101/155/163
f 101/155/164 100/154/164 87/135/164
f 51/69/165 95/157/165 63/158/165
f 55/159/166 1/71/166 51/69/166
f 6/38/167 95/157/167 1/71/167
f 1/71/168 95/157/168 51/69/168
f 90/160/169 102/161/169 63/158/169
f 72/113/170 71/112/170 90/160/170
f 63/162/171 102/161/171 71/112/171
f 71/112/172 102/161/172 90/160/172
f 102/161/173 51/69/173 63/158/173
f 63/162/174 61/163/174 102/161/174
f 63/164/175 70/111/175 103/165/175
f 103/165/176 70/111/176 72/166/176
f 103/167/177 75/168/177 63/169/177
f 72/170/178 101/171/178 103/167/178
f 73/172/179 75/168/179 101/171/179
f 101/171/180 75/168/180 103/167/180
f 88/173/181 77/174/181 73/172/181
f 84/175/182 83/176/182 88/173/182
f 69/177/183 77/174/183 83/176/183
f 83/176/184 77/174/184 88/173/184
f 62/103/185 54/94/185 55/95/185
f 65/106/186 66/107/186 62/103/186
f 56/96/187 54/94/187 66/107/187
f 66/107/188 54/94/188 62/103/188
f 67/108/189 58/98/189 56/96/189
f 69/110/190 81/178/190 67/108/190
f 59/100/191 58/98/191 81/178/191
f 81/178/192 58/98/192 67/108/192
f 74/116/193 64/105/193 63/104/193
f 73/115/194 76/119/194 74/116/194
f 65/106/195 64/105/195 76/119/195
f 76/119/196 64/105/196 74/116/196
f 61/163/197 51/69/197 102/161/197
f 100/154/198 99/152/198 85/133/198
f 55/159/199 51/69/199 61/163/199
f 72/179/200 99/152/200 100/154/200
f 82/129/201 78/123/201 59/125/201
f 84/132/202 96/180/202 82/129/202
f 79/126/203 78/123/203 96/180/203
f 96/180/204 78/123/204 82/129/204
f 88/136/205 86/134/205 84/150/205
f 91/140/206 89/138/206 93/144/206
f 72/153/207 90/139/207 91/140/207
f 73/115/208 87/135/208 88/136/208
